{
	"asset":{
		"generator":"Khronos glTF Blender I/O v5.0.21",
		"version":"2.0"
	},
	"scene":0,
	"scenes":[
		{
			"name":"Scene",
			"nodes":[
				0,
				1,
				2,
				3,
				4,
				5,
				6,
				7,
				8,
				9,
				10,
				11,
				12,
				13,
				14,
				15,
				16,
				17,
				18,
				19,
				20,
				21,
				22,
				23,
				24,
				25
			]
		}
	],
	"nodes":[
		{
			"mesh":0,
			"name":"Cube",
			"scale":[
				4.5530619621276855,
				0.628381609916687,
				0.12633049488067627
			],
			"translation":[
				-35.678855895996094,
				2.1938064098358154,
				-14.361995697021484
			]
		},
		{
			"mesh":1,
			"name":"Plane",
			"scale":[
				71.2895278930664,
				7.203939914703369,
				35.86060333251953
			],
			"translation":[
				0,
				0,
				-3.8855514526367188
			]
		},
		{
			"mesh":2,
			"name":"Cube.001",
			"scale":[
				16.07379150390625,
				0.623280942440033,
				0.623280942440033
			],
			"translation":[
				13.273321151733398,
				1.0418634414672852,
				-36.48607635498047
			]
		},
		{
			"mesh":3,
			"name":"Plane.001",
			"rotation":[
				-0.70710688829422,
				0,
				0,
				0.7071066498756409
			],
			"scale":[
				-6.257450580596924,
				-0.6232810020446777,
				-6.486985206604004
			],
			"translation":[
				12.883179664611816,
				7.186496734619141,
				-36.6561279296875
			]
		},
		{
			"mesh":4,
			"name":"Cube.003",
			"scale":[
				5.3363728523254395,
				0.628381609916687,
				0.12633049488067627
			],
			"translation":[
				-18.389986038208008,
				16.245725631713867,
				-36.58748245239258
			]
		},
		{
			"mesh":5,
			"name":"Cube.005",
			"scale":[
				10.679408073425293,
				4.730663299560547,
				11.14920711517334
			],
			"translation":[
				41.185569763183594,
				0.509588360786438,
				-52.152976989746094
			]
		},
		{
			"mesh":6,
			"name":"Cube.004",
			"scale":[
				10.679408073425293,
				4.730663299560547,
				11.14920711517334
			],
			"translation":[
				-11.429779052734375,
				0.509588360786438,
				-52.152976989746094
			]
		},
		{
			"mesh":7,
			"name":"Cube.006",
			"rotation":[
				0,
				-1,
				0,
				4.371138828673793e-08
			],
			"scale":[
				4.5530619621276855,
				0.628381609916687,
				0.12633049488067627
			],
			"translation":[
				77.86270141601562,
				2.1938064098358154,
				-14.361995697021484
			]
		},
		{
			"mesh":8,
			"name":"head",
			"rotation":[
				0.5,
				-0.5,
				0.5,
				0.5000000596046448
			],
			"scale":[
				0.3985464572906494,
				0.3985464572906494,
				0.3985464572906494
			],
			"translation":[
				19.59872817993164,
				3.499519109725952,
				-33.735321044921875
			]
		},
		{
			"mesh":9,
			"name":"left_arm",
			"rotation":[
				0.5,
				-0.5,
				0.5,
				0.5000000596046448
			],
			"scale":[
				0.3985464572906494,
				0.3985464572906494,
				0.3985464572906494
			],
			"translation":[
				19.59872817993164,
				3.499519109725952,
				-33.735321044921875
			]
		},
		{
			"mesh":10,
			"name":"left_leg",
			"rotation":[
				0.5,
				-0.5,
				0.5,
				0.5000000596046448
			],
			"scale":[
				0.3985464572906494,
				0.3985464572906494,
				0.3985464572906494
			],
			"translation":[
				19.59872817993164,
				3.499519109725952,
				-33.735321044921875
			]
		},
		{
			"mesh":11,
			"name":"right_arm",
			"rotation":[
				0.5,
				-0.5,
				0.5,
				0.5000000596046448
			],
			"scale":[
				0.3985464572906494,
				0.3985464572906494,
				0.3985464572906494
			],
			"translation":[
				19.59872817993164,
				3.499519109725952,
				-33.735321044921875
			]
		},
		{
			"mesh":12,
			"name":"right_leg",
			"rotation":[
				0.5,
				-0.5,
				0.5,
				0.5000000596046448
			],
			"scale":[
				0.3985464572906494,
				0.3985464572906494,
				0.3985464572906494
			],
			"translation":[
				19.59872817993164,
				3.499519109725952,
				-33.735321044921875
			]
		},
		{
			"mesh":13,
			"name":"torso",
			"rotation":[
				0.5,
				-0.5,
				0.5,
				0.5000000596046448
			],
			"scale":[
				0.3985464572906494,
				0.3985464572906494,
				0.3985464572906494
			],
			"translation":[
				19.59872817993164,
				3.499519109725952,
				-33.735321044921875
			]
		},
		{
			"mesh":14,
			"name":"torso.001",
			"rotation":[
				0.5,
				-0.5,
				0.5,
				0.5000000596046448
			],
			"scale":[
				0.3985464572906494,
				0.3985464572906494,
				0.3985464572906494
			],
			"translation":[
				6.935307502746582,
				3.499519109725952,
				-33.735321044921875
			]
		},
		{
			"mesh":15,
			"name":"right_leg.001",
			"rotation":[
				0.5,
				-0.5,
				0.5,
				0.5000000596046448
			],
			"scale":[
				0.3985464572906494,
				0.3985464572906494,
				0.3985464572906494
			],
			"translation":[
				6.935307502746582,
				3.499519109725952,
				-33.735321044921875
			]
		},
		{
			"mesh":16,
			"name":"right_arm.001",
			"rotation":[
				0.5,
				-0.5,
				0.5,
				0.5000000596046448
			],
			"scale":[
				0.3985464572906494,
				0.3985464572906494,
				0.3985464572906494
			],
			"translation":[
				6.935307502746582,
				3.499519109725952,
				-33.735321044921875
			]
		},
		{
			"mesh":17,
			"name":"left_leg.001",
			"rotation":[
				0.5,
				-0.5,
				0.5,
				0.5000000596046448
			],
			"scale":[
				0.3985464572906494,
				0.3985464572906494,
				0.3985464572906494
			],
			"translation":[
				6.935307502746582,
				3.499519109725952,
				-33.735321044921875
			]
		},
		{
			"mesh":18,
			"name":"left_arm.001",
			"rotation":[
				0.5,
				-0.5,
				0.5,
				0.5000000596046448
			],
			"scale":[
				0.3985464572906494,
				0.3985464572906494,
				0.3985464572906494
			],
			"translation":[
				6.935307502746582,
				3.499519109725952,
				-33.735321044921875
			]
		},
		{
			"mesh":19,
			"name":"head.001",
			"rotation":[
				0.5,
				-0.5,
				0.5,
				0.5000000596046448
			],
			"scale":[
				0.3985464572906494,
				0.3985464572906494,
				0.3985464572906494
			],
			"translation":[
				6.935307502746582,
				3.499519109725952,
				-33.735321044921875
			]
		},
		{
			"mesh":20,
			"name":"left_leg.002",
			"rotation":[
				0.5,
				-0.5,
				0.5,
				0.5000000596046448
			],
			"scale":[
				0.3985464572906494,
				0.3985464572906494,
				0.3985464572906494
			],
			"translation":[
				25.11273765563965,
				19.35005760192871,
				-43.24385070800781
			]
		},
		{
			"mesh":21,
			"name":"left_leg.003",
			"rotation":[
				0.5,
				-0.5,
				0.5,
				0.5000000596046448
			],
			"scale":[
				0.3985464572906494,
				0.3985464572906494,
				0.3985464572906494
			],
			"translation":[
				3.5795886516571045,
				19.35005760192871,
				-43.24385070800781
			]
		},
		{
			"mesh":22,
			"name":"Banner_2.001",
			"rotation":[
				-0.70710688829422,
				0,
				0,
				0.7071066498756409
			],
			"scale":[
				2,
				0.10000001639127731,
				5.127587795257568
			],
			"translation":[
				-1.2637310028076172,
				7.006299018859863,
				-35.81818389892578
			]
		},
		{
			"mesh":23,
			"name":"Banner_2.002",
			"rotation":[
				-0.70710688829422,
				0,
				0,
				0.7071066498756409
			],
			"scale":[
				2,
				0.10000001639127731,
				5.127587795257568
			],
			"translation":[
				26.70915985107422,
				7.006299018859863,
				-35.81818389892578
			]
		},
		{
			"mesh":24,
			"name":"Cylinder",
			"rotation":[
				-0.5,
				-0.4999999701976776,
				-0.5,
				0.5
			],
			"scale":[
				-0.18884192407131195,
				-1.579404592514038,
				-0.18884192407131195
			],
			"translation":[
				-1.2668193578720093,
				12.159978866577148,
				-35.858272552490234
			]
		},
		{
			"mesh":25,
			"name":"Cylinder.001",
			"rotation":[
				-0.5,
				-0.4999999701976776,
				-0.5,
				0.5
			],
			"scale":[
				-0.18884192407131195,
				-1.579404592514038,
				-0.18884192407131195
			],
			"translation":[
				26.757522583007812,
				12.159978866577148,
				-35.858272552490234
			]
		}
	],
	"materials":[
		{
			"doubleSided":true,
			"name":"Material.009",
			"pbrMetallicRoughness":{
				"baseColorTexture":{
					"index":0
				},
				"metallicFactor":0
			}
		},
		{
			"doubleSided":true,
			"name":"Material.010",
			"pbrMetallicRoughness":{
				"baseColorTexture":{
					"index":1
				},
				"metallicFactor":0
			}
		},
		{
			"doubleSided":true,
			"name":"Material.011",
			"pbrMetallicRoughness":{
				"baseColorTexture":{
					"index":2
				},
				"metallicFactor":0
			}
		},
		{
			"doubleSided":true,
			"name":"Material.012",
			"pbrMetallicRoughness":{
				"baseColorFactor":[
					0,
					0,
					0,
					1
				],
				"metallicFactor":0
			}
		},
		{
			"doubleSided":true,
			"name":"Material.013",
			"pbrMetallicRoughness":{
				"baseColorTexture":{
					"index":3
				},
				"metallicFactor":0
			}
		},
		{
			"doubleSided":true,
			"name":"Material",
			"pbrMetallicRoughness":{
				"baseColorTexture":{
					"index":4
				},
				"metallicFactor":0
			}
		},
		{
			"doubleSided":true,
			"name":"Material.014",
			"pbrMetallicRoughness":{
				"baseColorTexture":{
					"index":5
				},
				"metallicFactor":0
			}
		},
		{
			"doubleSided":true,
			"name":"Material.015",
			"pbrMetallicRoughness":{
				"baseColorTexture":{
					"index":6
				},
				"metallicFactor":0
			}
		},
		{
			"doubleSided":true,
			"name":"Material.029",
			"pbrMetallicRoughness":{
				"baseColorFactor":[
					0,
					0,
					0,
					1
				],
				"metallicFactor":0
			}
		},
		{
			"doubleSided":true,
			"name":"Material.030",
			"pbrMetallicRoughness":{
				"baseColorFactor":[
					0,
					0,
					0,
					1
				],
				"metallicFactor":0
			}
		},
		{
			"doubleSided":true,
			"name":"Material.031",
			"pbrMetallicRoughness":{
				"baseColorTexture":{
					"index":7
				},
				"metallicFactor":0
			}
		},
		{
			"doubleSided":true,
			"name":"Material.032",
			"pbrMetallicRoughness":{
				"baseColorTexture":{
					"index":8
				},
				"metallicFactor":0
			}
		},
		{
			"doubleSided":true,
			"name":"Material.003",
			"pbrMetallicRoughness":{
				"baseColorTexture":{
					"index":9
				},
				"metallicFactor":0
			}
		},
		{
			"doubleSided":true,
			"name":"Material.033",
			"pbrMetallicRoughness":{
				"baseColorTexture":{
					"index":10
				},
				"metallicFactor":0
			}
		}
	],
	"meshes":[
		{
			"name":"Cube.007",
			"primitives":[
				{
					"attributes":{
						"POSITION":0,
						"NORMAL":1,
						"TEXCOORD_0":2
					},
					"indices":3,
					"material":0
				}
			]
		},
		{
			"name":"Plane.003",
			"primitives":[
				{
					"attributes":{
						"POSITION":4,
						"NORMAL":5,
						"TEXCOORD_0":6
					},
					"indices":7,
					"material":1
				}
			]
		},
		{
			"name":"Cube.008",
			"primitives":[
				{
					"attributes":{
						"POSITION":8,
						"NORMAL":9,
						"TEXCOORD_0":10
					},
					"indices":11,
					"material":2
				}
			]
		},
		{
			"name":"Plane.004",
			"primitives":[
				{
					"attributes":{
						"POSITION":12,
						"NORMAL":13,
						"TEXCOORD_0":14
					},
					"indices":15,
					"material":3
				}
			]
		},
		{
			"name":"Cube.009",
			"primitives":[
				{
					"attributes":{
						"POSITION":16,
						"NORMAL":17,
						"TEXCOORD_0":18
					},
					"indices":19,
					"material":4
				}
			]
		},
		{
			"name":"Cube.011",
			"primitives":[
				{
					"attributes":{
						"POSITION":20,
						"NORMAL":21,
						"TEXCOORD_0":22
					},
					"indices":23,
					"material":5
				}
			]
		},
		{
			"name":"Cube.012",
			"primitives":[
				{
					"attributes":{
						"POSITION":24,
						"NORMAL":25,
						"TEXCOORD_0":26
					},
					"indices":27,
					"material":6
				}
			]
		},
		{
			"name":"Cube.013",
			"primitives":[
				{
					"attributes":{
						"POSITION":28,
						"NORMAL":29,
						"TEXCOORD_0":30
					},
					"indices":31,
					"material":7
				}
			]
		},
		{
			"name":"head.001",
			"primitives":[
				{
					"attributes":{
						"POSITION":32,
						"NORMAL":33,
						"TEXCOORD_0":34
					},
					"indices":35
				}
			]
		},
		{
			"name":"left_arm.001",
			"primitives":[
				{
					"attributes":{
						"POSITION":36,
						"NORMAL":37,
						"TEXCOORD_0":38
					},
					"indices":39
				}
			]
		},
		{
			"name":"left_leg.001",
			"primitives":[
				{
					"attributes":{
						"POSITION":40,
						"NORMAL":41,
						"TEXCOORD_0":42
					},
					"indices":39
				}
			]
		},
		{
			"name":"right_arm.001",
			"primitives":[
				{
					"attributes":{
						"POSITION":43,
						"NORMAL":44,
						"TEXCOORD_0":45
					},
					"indices":46
				}
			]
		},
		{
			"name":"right_leg.001",
			"primitives":[
				{
					"attributes":{
						"POSITION":47,
						"NORMAL":48,
						"TEXCOORD_0":49
					},
					"indices":50
				}
			]
		},
		{
			"name":"torso.001",
			"primitives":[
				{
					"attributes":{
						"POSITION":51,
						"NORMAL":52,
						"TEXCOORD_0":53
					},
					"indices":54
				}
			]
		},
		{
			"name":"torso.002",
			"primitives":[
				{
					"attributes":{
						"POSITION":55,
						"NORMAL":56,
						"TEXCOORD_0":57
					},
					"indices":54
				}
			]
		},
		{
			"name":"right_leg.002",
			"primitives":[
				{
					"attributes":{
						"POSITION":58,
						"NORMAL":59,
						"TEXCOORD_0":60
					},
					"indices":50
				}
			]
		},
		{
			"name":"right_arm.002",
			"primitives":[
				{
					"attributes":{
						"POSITION":61,
						"NORMAL":62,
						"TEXCOORD_0":63
					},
					"indices":46
				}
			]
		},
		{
			"name":"left_leg.002",
			"primitives":[
				{
					"attributes":{
						"POSITION":64,
						"NORMAL":65,
						"TEXCOORD_0":66
					},
					"indices":39
				}
			]
		},
		{
			"name":"left_arm.002",
			"primitives":[
				{
					"attributes":{
						"POSITION":67,
						"NORMAL":68,
						"TEXCOORD_0":69
					},
					"indices":39
				}
			]
		},
		{
			"name":"head.002",
			"primitives":[
				{
					"attributes":{
						"POSITION":70,
						"NORMAL":71,
						"TEXCOORD_0":72
					},
					"indices":35
				}
			]
		},
		{
			"name":"left_leg.003",
			"primitives":[
				{
					"attributes":{
						"POSITION":73,
						"NORMAL":74,
						"TEXCOORD_0":75
					},
					"indices":76,
					"material":8
				}
			]
		},
		{
			"name":"left_leg.004",
			"primitives":[
				{
					"attributes":{
						"POSITION":77,
						"NORMAL":78,
						"TEXCOORD_0":79
					},
					"indices":76,
					"material":9
				}
			]
		},
		{
			"name":"Plane.005",
			"primitives":[
				{
					"attributes":{
						"POSITION":80,
						"NORMAL":81,
						"TEXCOORD_0":82
					},
					"indices":15,
					"material":10
				}
			]
		},
		{
			"name":"Plane.006",
			"primitives":[
				{
					"attributes":{
						"POSITION":83,
						"NORMAL":84,
						"TEXCOORD_0":85
					},
					"indices":15,
					"material":11
				}
			]
		},
		{
			"name":"Cylinder",
			"primitives":[
				{
					"attributes":{
						"POSITION":86,
						"NORMAL":87,
						"TEXCOORD_0":88
					},
					"indices":89,
					"material":12
				}
			]
		},
		{
			"name":"Cylinder.001",
			"primitives":[
				{
					"attributes":{
						"POSITION":90,
						"NORMAL":91,
						"TEXCOORD_0":92
					},
					"indices":89,
					"material":13
				}
			]
		}
	],
	"textures":[
		{
			"sampler":0,
			"source":0
		},
		{
			"sampler":0,
			"source":1
		},
		{
			"sampler":0,
			"source":0
		},
		{
			"sampler":0,
			"source":0
		},
		{
			"sampler":0,
			"source":0
		},
		{
			"sampler":0,
			"source":0
		},
		{
			"sampler":0,
			"source":0
		},
		{
			"sampler":0,
			"source":2
		},
		{
			"sampler":0,
			"source":2
		},
		{
			"sampler":0,
			"source":1
		},
		{
			"sampler":0,
			"source":1
		}
	],
	"images":[
		{
			"mimeType":"image/png",
			"name":"stone",
			"uri":"./arena_textures/stone.png"
		},
		{
			"mimeType":"image/png",
			"name":"grass",
			"uri":"./arena_textures/grass.png"
		},
		{
			"mimeType":"image/png",
			"name":"banner",
			"uri":"./arena_textures/banner.png"
		}
	],
	"accessors":[
		{
			"bufferView":0,
			"componentType":5126,
			"count":884,
			"max":[
				11,
				2.824908494949341,
				1
			],
			"min":[
				-1,
				-5.405699729919434,
				-1
			],
			"type":"VEC3"
		},
		{
			"bufferView":1,
			"componentType":5126,
			"count":884,
			"type":"VEC3"
		},
		{
			"bufferView":2,
			"componentType":5126,
			"count":884,
			"type":"VEC2"
		},
		{
			"bufferView":3,
			"componentType":5123,
			"count":2004,
			"type":"SCALAR"
		},
		{
			"bufferView":4,
			"componentType":5126,
			"count":4225,
			"max":[
				1,
				0.19582951068878174,
				1
			],
			"min":[
				-1,
				0,
				-1
			],
			"type":"VEC3"
		},
		{
			"bufferView":5,
			"componentType":5126,
			"count":4225,
			"type":"VEC3"
		},
		{
			"bufferView":6,
			"componentType":5126,
			"count":4225,
			"type":"VEC2"
		},
		{
			"bufferView":7,
			"componentType":5123,
			"count":24576,
			"type":"SCALAR"
		},
		{
			"bufferView":8,
			"componentType":5126,
			"count":60,
			"max":[
				2.3021254539489746,
				21.729286193847656,
				1
			],
			"min":[
				-2.3021254539489746,
				-1,
				-1
			],
			"type":"VEC3"
		},
		{
			"bufferView":9,
			"componentType":5126,
			"count":60,
			"type":"VEC3"
		},
		{
			"bufferView":10,
			"componentType":5126,
			"count":60,
			"type":"VEC2"
		},
		{
			"bufferView":11,
			"componentType":5123,
			"count":144,
			"type":"SCALAR"
		},
		{
			"bufferView":12,
			"componentType":5126,
			"count":4,
			"max":[
				1,
				0,
				1
			],
			"min":[
				-1,
				0,
				-1
			],
			"type":"VEC3"
		},
		{
			"bufferView":13,
			"componentType":5126,
			"count":4,
			"type":"VEC3"
		},
		{
			"bufferView":14,
			"componentType":5126,
			"count":4,
			"type":"VEC2"
		},
		{
			"bufferView":15,
			"componentType":5123,
			"count":6,
			"type":"SCALAR"
		},
		{
			"bufferView":16,
			"componentType":5126,
			"count":1092,
			"max":[
				13,
				2.824908494949341,
				1
			],
			"min":[
				-1,
				-5.405699729919434,
				-1
			],
			"type":"VEC3"
		},
		{
			"bufferView":17,
			"componentType":5126,
			"count":1092,
			"type":"VEC3"
		},
		{
			"bufferView":18,
			"componentType":5126,
			"count":1092,
			"type":"VEC2"
		},
		{
			"bufferView":19,
			"componentType":5123,
			"count":2604,
			"type":"SCALAR"
		},
		{
			"bufferView":20,
			"componentType":5126,
			"count":8,
			"max":[
				1,
				8.295014381408691,
				1
			],
			"min":[
				-1,
				-1,
				-1
			],
			"type":"VEC3"
		},
		{
			"bufferView":21,
			"componentType":5126,
			"count":8,
			"type":"VEC3"
		},
		{
			"bufferView":22,
			"componentType":5126,
			"count":8,
			"type":"VEC2"
		},
		{
			"bufferView":23,
			"componentType":5123,
			"count":12,
			"type":"SCALAR"
		},
		{
			"bufferView":24,
			"componentType":5126,
			"count":8,
			"max":[
				1,
				8.295014381408691,
				1
			],
			"min":[
				-1,
				-1,
				-1
			],
			"type":"VEC3"
		},
		{
			"bufferView":25,
			"componentType":5126,
			"count":8,
			"type":"VEC3"
		},
		{
			"bufferView":26,
			"componentType":5126,
			"count":8,
			"type":"VEC2"
		},
		{
			"bufferView":27,
			"componentType":5123,
			"count":12,
			"type":"SCALAR"
		},
		{
			"bufferView":28,
			"componentType":5126,
			"count":882,
			"max":[
				11,
				2.824908494949341,
				1
			],
			"min":[
				-1,
				-5.405699729919434,
				-1
			],
			"type":"VEC3"
		},
		{
			"bufferView":29,
			"componentType":5126,
			"count":882,
			"type":"VEC3"
		},
		{
			"bufferView":30,
			"componentType":5126,
			"count":882,
			"type":"VEC2"
		},
		{
			"bufferView":31,
			"componentType":5123,
			"count":1998,
			"type":"SCALAR"
		},
		{
			"bufferView":32,
			"componentType":5126,
			"count":740,
			"max":[
				1.2367459535598755,
				1.2367470264434814,
				-1.5608940124511719
			],
			"min":[
				-1.169306993484497,
				-1.2367440462112427,
				-4.240138053894043
			],
			"type":"VEC3"
		},
		{
			"bufferView":33,
			"componentType":5126,
			"count":740,
			"type":"VEC3"
		},
		{
			"bufferView":34,
			"componentType":5126,
			"count":740,
			"type":"VEC2"
		},
		{
			"bufferView":35,
			"componentType":5123,
			"count":2304,
			"type":"SCALAR"
		},
		{
			"bufferView":36,
			"componentType":5126,
			"count":230,
			"max":[
				0.9854230284690857,
				3.0165090560913086,
				2.137744903564453
			],
			"min":[
				-0.9854230284690857,
				1.1343369483947754,
				-1.525879979133606
			],
			"type":"VEC3"
		},
		{
			"bufferView":37,
			"componentType":5126,
			"count":230,
			"type":"VEC3"
		},
		{
			"bufferView":38,
			"componentType":5126,
			"count":230,
			"type":"VEC2"
		},
		{
			"bufferView":39,
			"componentType":5123,
			"count":960,
			"type":"SCALAR"
		},
		{
			"bufferView":40,
			"componentType":5126,
			"count":230,
			"max":[
				0.9943820238113403,
				1.9094539880752563,
				5.369710922241211
			],
			"min":[
				-0.9943820238113403,
				0.01016900036484003,
				1.4741040468215942
			],
			"type":"VEC3"
		},
		{
			"bufferView":41,
			"componentType":5126,
			"count":230,
			"type":"VEC3"
		},
		{
			"bufferView":42,
			"componentType":5126,
			"count":230,
			"type":"VEC2"
		},
		{
			"bufferView":43,
			"componentType":5126,
			"count":230,
			"max":[
				0.9854230284690857,
				-1.1343350410461426,
				2.1377439498901367
			],
			"min":[
				-0.9854230284690857,
				-3.016508102416992,
				-1.525881052017212
			],
			"type":"VEC3"
		},
		{
			"bufferView":44,
			"componentType":5126,
			"count":230,
			"type":"VEC3"
		},
		{
			"bufferView":45,
			"componentType":5126,
			"count":230,
			"type":"VEC2"
		},
		{
			"bufferView":46,
			"componentType":5123,
			"count":960,
			"type":"SCALAR"
		},
		{
			"bufferView":47,
			"componentType":5126,
			"count":230,
			"max":[
				0.9943820238113403,
				-0.010168000124394894,
				5.369710922241211
			],
			"min":[
				-0.9943820238113403,
				-1.9094539880752563,
				1.4741040468215942
			],
			"type":"VEC3"
		},
		{
			"bufferView":48,
			"componentType":5126,
			"count":230,
			"type":"VEC3"
		},
		{
			"bufferView":49,
			"componentType":5126,
			"count":230,
			"type":"VEC2"
		},
		{
			"bufferView":50,
			"componentType":5123,
			"count":960,
			"type":"SCALAR"
		},
		{
			"bufferView":51,
			"componentType":5126,
			"count":150,
			"max":[
				0.7612990140914917,
				1.4399299621582031,
				1.748445987701416
			],
			"min":[
				-0.7612990140914917,
				-1.4399290084838867,
				-1.7305940389633179
			],
			"type":"VEC3"
		},
		{
			"bufferView":52,
			"componentType":5126,
			"count":150,
			"type":"VEC3"
		},
		{
			"bufferView":53,
			"componentType":5126,
			"count":150,
			"type":"VEC2"
		},
		{
			"bufferView":54,
			"componentType":5123,
			"count":576,
			"type":"SCALAR"
		},
		{
			"bufferView":55,
			"componentType":5126,
			"count":150,
			"max":[
				0.7612990140914917,
				1.4399299621582031,
				1.748445987701416
			],
			"min":[
				-0.7612990140914917,
				-1.4399290084838867,
				-1.7305940389633179
			],
			"type":"VEC3"
		},
		{
			"bufferView":56,
			"componentType":5126,
			"count":150,
			"type":"VEC3"
		},
		{
			"bufferView":57,
			"componentType":5126,
			"count":150,
			"type":"VEC2"
		},
		{
			"bufferView":58,
			"componentType":5126,
			"count":230,
			"max":[
				0.9943820238113403,
				-0.010168000124394894,
				5.369710922241211
			],
			"min":[
				-0.9943820238113403,
				-1.9094539880752563,
				1.4741040468215942
			],
			"type":"VEC3"
		},
		{
			"bufferView":59,
			"componentType":5126,
			"count":230,
			"type":"VEC3"
		},
		{
			"bufferView":60,
			"componentType":5126,
			"count":230,
			"type":"VEC2"
		},
		{
			"bufferView":61,
			"componentType":5126,
			"count":230,
			"max":[
				0.9854230284690857,
				-1.1343350410461426,
				2.1377439498901367
			],
			"min":[
				-0.9854230284690857,
				-3.016508102416992,
				-1.525881052017212
			],
			"type":"VEC3"
		},
		{
			"bufferView":62,
			"componentType":5126,
			"count":230,
			"type":"VEC3"
		},
		{
			"bufferView":63,
			"componentType":5126,
			"count":230,
			"type":"VEC2"
		},
		{
			"bufferView":64,
			"componentType":5126,
			"count":230,
			"max":[
				0.9943820238113403,
				1.9094539880752563,
				5.369710922241211
			],
			"min":[
				-0.9943820238113403,
				0.01016900036484003,
				1.4741040468215942
			],
			"type":"VEC3"
		},
		{
			"bufferView":65,
			"componentType":5126,
			"count":230,
			"type":"VEC3"
		},
		{
			"bufferView":66,
			"componentType":5126,
			"count":230,
			"type":"VEC2"
		},
		{
			"bufferView":67,
			"componentType":5126,
			"count":230,
			"max":[
				0.9854230284690857,
				3.0165090560913086,
				2.137744903564453
			],
			"min":[
				-0.9854230284690857,
				1.1343369483947754,
				-1.525879979133606
			],
			"type":"VEC3"
		},
		{
			"bufferView":68,
			"componentType":5126,
			"count":230,
			"type":"VEC3"
		},
		{
			"bufferView":69,
			"componentType":5126,
			"count":230,
			"type":"VEC2"
		},
		{
			"bufferView":70,
			"componentType":5126,
			"count":740,
			"max":[
				1.2367459535598755,
				1.2367470264434814,
				-1.5608940124511719
			],
			"min":[
				-1.169306993484497,
				-1.2367440462112427,
				-4.240138053894043
			],
			"type":"VEC3"
		},
		{
			"bufferView":71,
			"componentType":5126,
			"count":740,
			"type":"VEC3"
		},
		{
			"bufferView":72,
			"componentType":5126,
			"count":740,
			"type":"VEC2"
		},
		{
			"bufferView":73,
			"componentType":5126,
			"count":187,
			"max":[
				1.2644519805908203,
				2.922549247741699,
				5.292717933654785
			],
			"min":[
				-1.145032286643982,
				-2.925800085067749,
				-4.20108699798584
			],
			"type":"VEC3"
		},
		{
			"bufferView":74,
			"componentType":5126,
			"count":187,
			"type":"VEC3"
		},
		{
			"bufferView":75,
			"componentType":5126,
			"count":187,
			"type":"VEC2"
		},
		{
			"bufferView":76,
			"componentType":5123,
			"count":492,
			"type":"SCALAR"
		},
		{
			"bufferView":77,
			"componentType":5126,
			"count":187,
			"max":[
				1.2644519805908203,
				2.922549247741699,
				5.292717933654785
			],
			"min":[
				-1.145032286643982,
				-2.925800085067749,
				-4.20108699798584
			],
			"type":"VEC3"
		},
		{
			"bufferView":78,
			"componentType":5126,
			"count":187,
			"type":"VEC3"
		},
		{
			"bufferView":79,
			"componentType":5126,
			"count":187,
			"type":"VEC2"
		},
		{
			"bufferView":80,
			"componentType":5126,
			"count":4,
			"max":[
				1,
				0,
				1
			],
			"min":[
				-1,
				0,
				-1
			],
			"type":"VEC3"
		},
		{
			"bufferView":81,
			"componentType":5126,
			"count":4,
			"type":"VEC3"
		},
		{
			"bufferView":82,
			"componentType":5126,
			"count":4,
			"type":"VEC2"
		},
		{
			"bufferView":83,
			"componentType":5126,
			"count":4,
			"max":[
				1,
				0,
				1
			],
			"min":[
				-1,
				0,
				-1
			],
			"type":"VEC3"
		},
		{
			"bufferView":84,
			"componentType":5126,
			"count":4,
			"type":"VEC3"
		},
		{
			"bufferView":85,
			"componentType":5126,
			"count":4,
			"type":"VEC2"
		},
		{
			"bufferView":86,
			"componentType":5126,
			"count":34,
			"max":[
				1,
				1,
				1
			],
			"min":[
				-1,
				-1,
				-1
			],
			"type":"VEC3"
		},
		{
			"bufferView":87,
			"componentType":5126,
			"count":34,
			"type":"VEC3"
		},
		{
			"bufferView":88,
			"componentType":5126,
			"count":34,
			"type":"VEC2"
		},
		{
			"bufferView":89,
			"componentType":5123,
			"count":84,
			"type":"SCALAR"
		},
		{
			"bufferView":90,
			"componentType":5126,
			"count":34,
			"max":[
				1,
				1,
				1
			],
			"min":[
				-1,
				-1,
				-1
			],
			"type":"VEC3"
		},
		{
			"bufferView":91,
			"componentType":5126,
			"count":34,
			"type":"VEC3"
		},
		{
			"bufferView":92,
			"componentType":5126,
			"count":34,
			"type":"VEC2"
		}
	],
	"bufferViews":[
		{
			"buffer":0,
			"byteLength":10608,
			"byteOffset":0,
			"target":34962
		},
		{
			"buffer":0,
			"byteLength":10608,
			"byteOffset":10608,
			"target":34962
		},
		{
			"buffer":0,
			"byteLength":7072,
			"byteOffset":21216,
			"target":34962
		},
		{
			"buffer":0,
			"byteLength":4008,
			"byteOffset":28288,
			"target":34963
		},
		{
			"buffer":0,
			"byteLength":50700,
			"byteOffset":32296,
			"target":34962
		},
		{
			"buffer":0,
			"byteLength":50700,
			"byteOffset":82996,
			"target":34962
		},
		{
			"buffer":0,
			"byteLength":33800,
			"byteOffset":133696,
			"target":34962
		},
		{
			"buffer":0,
			"byteLength":49152,
			"byteOffset":167496,
			"target":34963
		},
		{
			"buffer":0,
			"byteLength":720,
			"byteOffset":216648,
			"target":34962
		},
		{
			"buffer":0,
			"byteLength":720,
			"byteOffset":217368,
			"target":34962
		},
		{
			"buffer":0,
			"byteLength":480,
			"byteOffset":218088,
			"target":34962
		},
		{
			"buffer":0,
			"byteLength":288,
			"byteOffset":218568,
			"target":34963
		},
		{
			"buffer":0,
			"byteLength":48,
			"byteOffset":218856,
			"target":34962
		},
		{
			"buffer":0,
			"byteLength":48,
			"byteOffset":218904,
			"target":34962
		},
		{
			"buffer":0,
			"byteLength":32,
			"byteOffset":218952,
			"target":34962
		},
		{
			"buffer":0,
			"byteLength":12,
			"byteOffset":218984,
			"target":34963
		},
		{
			"buffer":0,
			"byteLength":13104,
			"byteOffset":218996,
			"target":34962
		},
		{
			"buffer":0,
			"byteLength":13104,
			"byteOffset":232100,
			"target":34962
		},
		{
			"buffer":0,
			"byteLength":8736,
			"byteOffset":245204,
			"target":34962
		},
		{
			"buffer":0,
			"byteLength":5208,
			"byteOffset":253940,
			"target":34963
		},
		{
			"buffer":0,
			"byteLength":96,
			"byteOffset":259148,
			"target":34962
		},
		{
			"buffer":0,
			"byteLength":96,
			"byteOffset":259244,
			"target":34962
		},
		{
			"buffer":0,
			"byteLength":64,
			"byteOffset":259340,
			"target":34962
		},
		{
			"buffer":0,
			"byteLength":24,
			"byteOffset":259404,
			"target":34963
		},
		{
			"buffer":0,
			"byteLength":96,
			"byteOffset":259428,
			"target":34962
		},
		{
			"buffer":0,
			"byteLength":96,
			"byteOffset":259524,
			"target":34962
		},
		{
			"buffer":0,
			"byteLength":64,
			"byteOffset":259620,
			"target":34962
		},
		{
			"buffer":0,
			"byteLength":24,
			"byteOffset":259684,
			"target":34963
		},
		{
			"buffer":0,
			"byteLength":10584,
			"byteOffset":259708,
			"target":34962
		},
		{
			"buffer":0,
			"byteLength":10584,
			"byteOffset":270292,
			"target":34962
		},
		{
			"buffer":0,
			"byteLength":7056,
			"byteOffset":280876,
			"target":34962
		},
		{
			"buffer":0,
			"byteLength":3996,
			"byteOffset":287932,
			"target":34963
		},
		{
			"buffer":0,
			"byteLength":8880,
			"byteOffset":291928,
			"target":34962
		},
		{
			"buffer":0,
			"byteLength":8880,
			"byteOffset":300808,
			"target":34962
		},
		{
			"buffer":0,
			"byteLength":5920,
			"byteOffset":309688,
			"target":34962
		},
		{
			"buffer":0,
			"byteLength":4608,
			"byteOffset":315608,
			"target":34963
		},
		{
			"buffer":0,
			"byteLength":2760,
			"byteOffset":320216,
			"target":34962
		},
		{
			"buffer":0,
			"byteLength":2760,
			"byteOffset":322976,
			"target":34962
		},
		{
			"buffer":0,
			"byteLength":1840,
			"byteOffset":325736,
			"target":34962
		},
		{
			"buffer":0,
			"byteLength":1920,
			"byteOffset":327576,
			"target":34963
		},
		{
			"buffer":0,
			"byteLength":2760,
			"byteOffset":329496,
			"target":34962
		},
		{
			"buffer":0,
			"byteLength":2760,
			"byteOffset":332256,
			"target":34962
		},
		{
			"buffer":0,
			"byteLength":1840,
			"byteOffset":335016,
			"target":34962
		},
		{
			"buffer":0,
			"byteLength":2760,
			"byteOffset":336856,
			"target":34962
		},
		{
			"buffer":0,
			"byteLength":2760,
			"byteOffset":339616,
			"target":34962
		},
		{
			"buffer":0,
			"byteLength":1840,
			"byteOffset":342376,
			"target":34962
		},
		{
			"buffer":0,
			"byteLength":1920,
			"byteOffset":344216,
			"target":34963
		},
		{
			"buffer":0,
			"byteLength":2760,
			"byteOffset":346136,
			"target":34962
		},
		{
			"buffer":0,
			"byteLength":2760,
			"byteOffset":348896,
			"target":34962
		},
		{
			"buffer":0,
			"byteLength":1840,
			"byteOffset":351656,
			"target":34962
		},
		{
			"buffer":0,
			"byteLength":1920,
			"byteOffset":353496,
			"target":34963
		},
		{
			"buffer":0,
			"byteLength":1800,
			"byteOffset":355416,
			"target":34962
		},
		{
			"buffer":0,
			"byteLength":1800,
			"byteOffset":357216,
			"target":34962
		},
		{
			"buffer":0,
			"byteLength":1200,
			"byteOffset":359016,
			"target":34962
		},
		{
			"buffer":0,
			"byteLength":1152,
			"byteOffset":360216,
			"target":34963
		},
		{
			"buffer":0,
			"byteLength":1800,
			"byteOffset":361368,
			"target":34962
		},
		{
			"buffer":0,
			"byteLength":1800,
			"byteOffset":363168,
			"target":34962
		},
		{
			"buffer":0,
			"byteLength":1200,
			"byteOffset":364968,
			"target":34962
		},
		{
			"buffer":0,
			"byteLength":2760,
			"byteOffset":366168,
			"target":34962
		},
		{
			"buffer":0,
			"byteLength":2760,
			"byteOffset":368928,
			"target":34962
		},
		{
			"buffer":0,
			"byteLength":1840,
			"byteOffset":371688,
			"target":34962
		},
		{
			"buffer":0,
			"byteLength":2760,
			"byteOffset":373528,
			"target":34962
		},
		{
			"buffer":0,
			"byteLength":2760,
			"byteOffset":376288,
			"target":34962
		},
		{
			"buffer":0,
			"byteLength":1840,
			"byteOffset":379048,
			"target":34962
		},
		{
			"buffer":0,
			"byteLength":2760,
			"byteOffset":380888,
			"target":34962
		},
		{
			"buffer":0,
			"byteLength":2760,
			"byteOffset":383648,
			"target":34962
		},
		{
			"buffer":0,
			"byteLength":1840,
			"byteOffset":386408,
			"target":34962
		},
		{
			"buffer":0,
			"byteLength":2760,
			"byteOffset":388248,
			"target":34962
		},
		{
			"buffer":0,
			"byteLength":2760,
			"byteOffset":391008,
			"target":34962
		},
		{
			"buffer":0,
			"byteLength":1840,
			"byteOffset":393768,
			"target":34962
		},
		{
			"buffer":0,
			"byteLength":8880,
			"byteOffset":395608,
			"target":34962
		},
		{
			"buffer":0,
			"byteLength":8880,
			"byteOffset":404488,
			"target":34962
		},
		{
			"buffer":0,
			"byteLength":5920,
			"byteOffset":413368,
			"target":34962
		},
		{
			"buffer":0,
			"byteLength":2244,
			"byteOffset":419288,
			"target":34962
		},
		{
			"buffer":0,
			"byteLength":2244,
			"byteOffset":421532,
			"target":34962
		},
		{
			"buffer":0,
			"byteLength":1496,
			"byteOffset":423776,
			"target":34962
		},
		{
			"buffer":0,
			"byteLength":984,
			"byteOffset":425272,
			"target":34963
		},
		{
			"buffer":0,
			"byteLength":2244,
			"byteOffset":426256,
			"target":34962
		},
		{
			"buffer":0,
			"byteLength":2244,
			"byteOffset":428500,
			"target":34962
		},
		{
			"buffer":0,
			"byteLength":1496,
			"byteOffset":430744,
			"target":34962
		},
		{
			"buffer":0,
			"byteLength":48,
			"byteOffset":432240,
			"target":34962
		},
		{
			"buffer":0,
			"byteLength":48,
			"byteOffset":432288,
			"target":34962
		},
		{
			"buffer":0,
			"byteLength":32,
			"byteOffset":432336,
			"target":34962
		},
		{
			"buffer":0,
			"byteLength":48,
			"byteOffset":432368,
			"target":34962
		},
		{
			"buffer":0,
			"byteLength":48,
			"byteOffset":432416,
			"target":34962
		},
		{
			"buffer":0,
			"byteLength":32,
			"byteOffset":432464,
			"target":34962
		},
		{
			"buffer":0,
			"byteLength":408,
			"byteOffset":432496,
			"target":34962
		},
		{
			"buffer":0,
			"byteLength":408,
			"byteOffset":432904,
			"target":34962
		},
		{
			"buffer":0,
			"byteLength":272,
			"byteOffset":433312,
			"target":34962
		},
		{
			"buffer":0,
			"byteLength":168,
			"byteOffset":433584,
			"target":34963
		},
		{
			"buffer":0,
			"byteLength":408,
			"byteOffset":433752,
			"target":34962
		},
		{
			"buffer":0,
			"byteLength":408,
			"byteOffset":434160,
			"target":34962
		},
		{
			"buffer":0,
			"byteLength":272,
			"byteOffset":434568,
			"target":34962
		}
	],
	"samplers":[
		{
			"magFilter":9729,
			"minFilter":9987
		}
	],
	"buffers":[
		{
			"byteLength":434840,
			"uri":"Arena.bin"
		}
	]
}
