# Blender v2.79 (sub 0) OBJ File: 'scene.blend'
# www.blender.org
mtllib pedestal.mtl
o Cylinder
v 0.007726 -5.867230 -3.675271
v 0.007726 -6.697638 -4.291599
v 1.356702 -5.867230 -3.406942
v 1.592561 -6.697638 -3.976356
v 2.500309 -5.867230 -2.642808
v 2.936119 -6.697638 -3.078619
v 3.264442 -5.867230 -1.499202
v 3.833856 -6.697638 -1.735061
v 3.532771 -5.867230 -0.150225
v 4.149099 -6.697638 -0.150225
v 3.264442 -5.867230 1.198751
v 3.833856 -6.697638 1.434610
v 2.500309 -5.867230 2.342357
v 2.936119 -6.697638 2.778168
v 1.356702 -5.867230 3.106491
v 1.592561 -6.697638 3.675905
v 0.007726 -5.867230 3.374819
v 0.007726 -6.697638 3.991148
v -1.341250 -5.867230 3.106491
v -1.577109 -6.697638 3.675905
v -2.484857 -5.867230 2.342358
v -2.920667 -6.697638 2.778169
v -3.248991 -5.867230 1.198751
v -3.818404 -6.697638 1.434610
v -3.517319 -5.867230 -0.150226
v -4.133648 -6.697638 -0.150226
v -3.248991 -5.867230 -1.499202
v -3.818404 -6.697638 -1.735061
v -2.484856 -5.867230 -2.642809
v -2.920667 -6.697638 -3.078620
v -1.341249 -5.867230 -3.406943
v -1.577107 -6.697638 -3.976357
v 0.007726 -5.867230 -4.291599
v 1.592561 -5.867230 -3.976356
v 2.936119 -5.867230 -3.078619
v 3.833856 -5.867230 -1.735061
v 4.149099 -5.867230 -0.150225
v 3.833856 -5.867230 1.434610
v 2.936119 -5.867230 2.778168
v 1.592561 -5.867230 3.675905
v 0.007726 -5.867230 3.991148
v -1.577109 -5.867230 3.675905
v -2.920667 -5.867230 2.778169
v -3.818404 -5.867230 1.434610
v -4.133648 -5.867230 -0.150226
v -3.818404 -5.867230 -1.735061
v -2.920667 -5.867230 -3.078620
v -1.577107 -5.867230 -3.976357
v 0.007726 -5.425655 -3.675271
v 1.356702 -5.425655 -3.406942
v 2.500309 -5.425655 -2.642808
v 3.264442 -5.425655 -1.499202
v 3.532771 -5.425655 -0.150225
v 3.264442 -5.425655 1.198751
v 2.500309 -5.425655 2.342357
v 1.356702 -5.425655 3.106491
v 0.007726 -5.425655 3.374819
v -1.341250 -5.425655 3.106491
v -2.484857 -5.425655 2.342358
v -3.248991 -5.425655 1.198751
v -3.517319 -5.425655 -0.150226
v -3.248991 -5.425655 -1.499202
v -2.484856 -5.425655 -2.642809
v -1.341249 -5.425655 -3.406943
vt 0.536820 0.750605
vt 0.581849 0.750605
vt 0.581849 0.985936
vt 0.536820 0.985936
vt 0.620022 0.750605
vt 0.620022 0.985936
vt 0.636789 0.750605
vt 0.598616 0.750605
vt 0.598616 0.985936
vt 0.636789 0.985936
vt 0.553587 0.750605
vt 0.553587 0.985936
vt 0.508559 0.750605
vt 0.508559 0.985936
vt 0.470385 0.750605
vt 0.470385 0.985936
vt 0.620022 0.750605
vt 0.581849 0.750605
vt 0.581849 0.985936
vt 0.620022 0.985936
vt 0.536820 0.750605
vt 0.536820 0.985936
vt 0.491791 0.750605
vt 0.491791 0.985936
vt 0.453618 0.750605
vt 0.453618 0.985936
vt 0.470385 0.750605
vt 0.508559 0.750605
vt 0.508559 0.985936
vt 0.470385 0.985936
vt 0.553587 0.750605
vt 0.553587 0.985936
vt 0.598616 0.750605
vt 0.598616 0.985936
vt 0.636790 0.750605
vt 0.636790 0.985936
vt 0.581849 0.557226
vt 0.620022 0.531720
vt 0.645529 0.493546
vt 0.654486 0.448517
vt 0.645529 0.403489
vt 0.620022 0.365315
vt 0.581849 0.339809
vt 0.536820 0.330852
vt 0.491791 0.339809
vt 0.453618 0.365315
vt 0.428111 0.403489
vt 0.419154 0.448517
vt 0.428111 0.493546
vt 0.453618 0.531720
vt 0.491791 0.557226
vt 0.536820 0.566183
vt 0.453618 0.750605
vt 0.491791 0.750605
vt 0.491791 0.985936
vt 0.453618 0.985936
vt 0.591915 0.750605
vt 0.591915 0.625466
vt 0.624407 0.625466
vt 0.624407 0.750605
vt 0.575147 0.776379
vt 0.581849 0.792558
vt 0.536820 0.801514
vt 0.536820 0.784003
vt 0.607640 0.754668
vt 0.620022 0.767051
vt 0.629350 0.722176
vt 0.645529 0.728877
vt 0.636974 0.683849
vt 0.654486 0.683849
vt 0.629350 0.645521
vt 0.645529 0.638820
vt 0.607640 0.613029
vt 0.620022 0.600646
vt 0.575147 0.591318
vt 0.581849 0.575140
vt 0.536820 0.583694
vt 0.536820 0.566183
vt 0.498493 0.591318
vt 0.491791 0.575140
vt 0.466000 0.613029
vt 0.453618 0.600646
vt 0.444289 0.645521
vt 0.428111 0.638820
vt 0.436666 0.683849
vt 0.419154 0.683849
vt 0.444289 0.722176
vt 0.428111 0.728877
vt 0.466000 0.754669
vt 0.453618 0.767051
vt 0.498493 0.776379
vt 0.491791 0.792558
vt 0.536820 0.548672
vt 0.536820 0.566183
vt 0.491791 0.557226
vt 0.498493 0.541048
vt 0.536820 0.548672
vt 0.498493 0.541048
vt 0.466000 0.519337
vt 0.444289 0.486845
vt 0.436666 0.448517
vt 0.444289 0.410190
vt 0.466000 0.377698
vt 0.498493 0.355987
vt 0.536820 0.348363
vt 0.575147 0.355987
vt 0.607640 0.377698
vt 0.629350 0.410190
vt 0.636974 0.448517
vt 0.629350 0.486845
vt 0.607640 0.519337
vt 0.575147 0.541048
vt 0.607640 0.750605
vt 0.607640 0.625466
vt 0.575147 0.625466
vt 0.575147 0.750605
vt 0.466000 0.750605
vt 0.466000 0.625466
vt 0.498493 0.625466
vt 0.498493 0.750605
vt 0.536820 0.625466
vt 0.536820 0.750605
vt 0.536820 0.750605
vt 0.536820 0.625466
vt 0.575147 0.625466
vt 0.575147 0.750605
vt 0.498493 0.625466
vt 0.498493 0.750605
vt 0.607640 0.625466
vt 0.607640 0.750605
vt 0.466000 0.625466
vt 0.466000 0.750605
vt 0.624407 0.750605
vt 0.624407 0.625466
vt 0.591915 0.625466
vt 0.591915 0.750605
vt 0.482767 0.750605
vt 0.482767 0.625466
vt 0.515260 0.625466
vt 0.515260 0.750605
vt 0.553587 0.625466
vt 0.553587 0.750605
vt 0.553587 0.625466
vt 0.553587 0.750605
vt 0.515260 0.625466
vt 0.515260 0.750605
vt 0.482767 0.625466
vt 0.482767 0.750605
vn 0.0000 0.0000 -1.0000
vn 0.3827 0.0000 -0.9239
vn 0.7071 0.0000 -0.7071
vn 0.9239 0.0000 -0.3827
vn 1.0000 0.0000 -0.0000
vn 0.9239 0.0000 0.3827
vn 0.7071 0.0000 0.7071
vn 0.3827 0.0000 0.9239
vn 0.0000 0.0000 1.0000
vn -0.3827 0.0000 0.9239
vn -0.7071 0.0000 0.7071
vn -0.9239 0.0000 0.3827
vn -1.0000 0.0000 -0.0000
vn -0.9239 0.0000 -0.3827
vn -0.7071 0.0000 -0.7071
vn 0.0000 -1.0000 0.0000
vn -0.3827 0.0000 -0.9239
vn 0.0000 1.0000 -0.0000
usemtl Material.001
s 1
f 33/1/1 34/2/2 4/3/2 2/4/1
f 34/2/2 35/5/3 6/6/3 4/3/2
f 35/7/3 36/8/4 8/9/4 6/10/3
f 36/8/4 37/11/5 10/12/5 8/9/4
f 37/11/5 38/13/6 12/14/6 10/12/5
f 38/13/6 39/15/7 14/16/7 12/14/6
f 39/17/7 40/18/8 16/19/8 14/20/7
f 40/18/8 41/21/9 18/22/9 16/19/8
f 41/21/9 42/23/10 20/24/10 18/22/9
f 42/23/10 43/25/11 22/26/11 20/24/10
f 43/27/11 44/28/12 24/29/12 22/30/11
f 44/28/12 45/31/13 26/32/13 24/29/12
f 45/31/13 46/33/14 28/34/14 26/32/13
f 46/33/14 47/35/15 30/36/15 28/34/14
f 4/37/16 6/38/16 8/39/16 10/40/16 12/41/16 14/42/16 16/43/16 18/44/16 20/45/16 22/46/16 24/47/16 26/48/16 28/49/16 30/50/16 32/51/16 2/52/16
f 47/53/15 48/54/17 32/55/17 30/56/15
f 48/54/17 33/1/1 2/4/1 32/55/17
f 27/57/14 62/58/14 63/59/15 29/60/15
f 3/61/18 34/62/18 33/63/18 1/64/18
f 5/65/18 35/66/18 34/62/18 3/61/18
f 7/67/18 36/68/18 35/66/18 5/65/18
f 9/69/18 37/70/18 36/68/18 7/67/18
f 11/71/18 38/72/18 37/70/18 9/69/18
f 13/73/18 39/74/18 38/72/18 11/71/18
f 15/75/18 40/76/18 39/74/18 13/73/18
f 17/77/18 41/78/18 40/76/18 15/75/18
f 19/79/18 42/80/18 41/78/18 17/77/18
f 21/81/18 43/82/18 42/80/18 19/79/18
f 23/83/18 44/84/18 43/82/18 21/81/18
f 25/85/18 45/86/18 44/84/18 23/83/18
f 27/87/18 46/88/18 45/86/18 25/85/18
f 29/89/18 47/90/18 46/88/18 27/87/18
f 31/91/18 48/92/18 47/90/18 29/89/18
f 1/93/18 33/94/18 48/95/18 31/96/18
f 49/97/18 64/98/18 63/99/18 62/100/18 61/101/18 60/102/18 59/103/18 58/104/18 57/105/18 56/106/18 55/107/18 54/108/18 53/109/18 52/110/18 51/111/18 50/112/18
f 13/113/7 55/114/7 56/115/8 15/116/8
f 29/117/15 63/118/15 64/119/17 31/120/17
f 15/116/8 56/115/8 57/121/9 17/122/9
f 1/123/1 49/124/1 50/125/2 3/126/2
f 31/120/17 64/119/17 49/124/1 1/123/1
f 17/122/9 57/121/9 58/127/10 19/128/10
f 3/126/2 50/125/2 51/129/3 5/130/3
f 19/128/10 58/127/10 59/131/11 21/132/11
f 5/133/3 51/134/3 52/135/4 7/136/4
f 21/137/11 59/138/11 60/139/12 23/140/12
f 7/136/4 52/135/4 53/141/5 9/142/5
f 23/140/12 60/139/12 61/143/13 25/144/13
f 9/142/5 53/141/5 54/145/6 11/146/6
f 25/144/13 61/143/13 62/58/14 27/57/14
f 11/146/6 54/145/6 55/147/7 13/148/7
